<svg width="226.09" class="mb-11 mx-auto md:mx-0 md:mb-0" xmlns="http://www.w3.org/2000/svg" viewBox="0 0 226.09 55.075">
  <path fill="#eb5c5f" d="M209.712,512.99a104.512,104.512,0,0,1-8.6,8.343c-12.235-10.685-18.437-19.927-18.437-27.481,0-12.3,9.5-18.944,18.437-18.944a18.615,18.615,0,0,1,14.393,6.8h4.5a21.445,21.445,0,0,0-3.452-4.342,22.364,22.364,0,0,0-30.891,0,22.644,22.644,0,0,0-6.722,16.485c0,9.067,6.855,19.327,20.957,31.365l1.211,1.034,1.211-1.034a111.742,111.742,0,0,0,10.148-9.72,62.554,62.554,0,0,0,5-6.213h-4.636C211.893,510.5,210.855,511.731,209.712,512.99Z" transform="translate(-178.948 -471.177)"></path>
  <g transform="translate(10.089 8.682)">
    <path fill="#001229" d="M392.379,501.477a8.646,8.646,0,0,0-3.123-.513,6.052,6.052,0,0,0-3.324.937,9.338,9.338,0,0,0-1.38,1.077v-8.534h-3.666v24.89h3.666V508.994a4.42,4.42,0,0,1,1.321-3.33,4.488,4.488,0,0,1,3.247-1.271,3.95,3.95,0,0,1,3.024,1.218,4.619,4.619,0,0,1,1.17,3.349v10.373h3.666V508.892a7.889,7.889,0,0,0-2.262-5.856A6.5,6.5,0,0,0,392.379,501.477Z" transform="translate(-315.62 -494.444)"></path>
    <path fill="#001229" d="M291.733,512.429a8.646,8.646,0,0,0-3.123-.513,6.052,6.052,0,0,0-3.324.937,9.336,9.336,0,0,0-1.38,1.077v-1.743H280.24v18.1h3.666V519.946a4.42,4.42,0,0,1,1.321-3.33,4.488,4.488,0,0,1,3.247-1.271,3.95,3.95,0,0,1,3.024,1.218,4.619,4.619,0,0,1,1.17,3.349v10.373h3.666V519.844a7.889,7.889,0,0,0-2.262-5.856A6.5,6.5,0,0,0,291.733,512.429Z" transform="translate(-252.531 -505.396)"></path>
    <path fill="#001229" d="M321.19,501.466h7.844V521.5H332.7V501.466h7.844V497.9H321.19Z" transform="translate(-278.2 -496.611)"></path>
    <path fill="#001229" d="M217.954,497.174a11.522,11.522,0,0,0-8.654,3.532,12.653,12.653,0,0,0,0,17.076,12.366,12.366,0,0,0,17.309,0,12.654,12.654,0,0,0,0-17.077A11.523,11.523,0,0,0,217.954,497.174Zm8.3,12.071a8.46,8.46,0,0,1-2.224,6.032,8.793,8.793,0,0,1-12.159,0,9.295,9.295,0,0,1,0-12.066,8.795,8.795,0,0,1,12.159,0A8.463,8.463,0,0,1,226.257,509.245Z" transform="translate(-205.984 -496.155)"></path>
    <path fill="#001229" d="M675.027,501.235h-5.173l-7.387,7.6V494.444H658.8v24.89h3.666v-5.691l2.553-2.526,5.729,8.218h4.5l-7.688-10.784Z" transform="translate(-489.828 -494.444)"></path>
    <path fill="#001229" d="M630.168,512.511a7.221,7.221,0,0,0-2.737,2.115v-2.439h-3.666v18.1h3.666v-8.03a7.453,7.453,0,0,1,1.511-4.68,4.865,4.865,0,0,1,4.042-1.993h.866v-3.666h-.73A6.753,6.753,0,0,0,630.168,512.511Z" transform="translate(-467.867 -505.396)"></path>
    <path fill="#001229" d="M712.007,511.916a8.644,8.644,0,0,0-6.593,2.728,9.422,9.422,0,0,0-2.388,6.593,9.271,9.271,0,0,0,2.5,6.6,8.79,8.79,0,0,0,6.655,2.722,8.648,8.648,0,0,0,5.275-1.537,8.782,8.782,0,0,0,2.99-3.985l.291-.76H716.8l-.157.3a4.58,4.58,0,0,1-4.428,2.552,5.161,5.161,0,0,1-3.755-1.406,5.446,5.446,0,0,1-1.6-2.907h14.132v-1.578a9.424,9.424,0,0,0-2.392-6.6A8.642,8.642,0,0,0,712.007,511.916Zm-5.092,7.4a5.246,5.246,0,0,1,1.531-2.661,5.486,5.486,0,0,1,7.119,0,5.253,5.253,0,0,1,1.534,2.664Z" transform="translate(-517.551 -505.396)"></path>
    <path fill="#001229" d="M762.39,502.433v-6.078h-3.666v6.078H755.26v3.361h3.464v14.737h3.666V505.794H766.3v-3.361Z" transform="translate(-550.294 -495.642)"></path>
    <path fill="#001229" d="M502.828,508.19,495.062,497.9H491.27v23.6h3.666V503.943l7.9,9.993,7.756-9.972V521.5h3.666V497.9h-3.8Z" transform="translate(-384.813 -496.611)"></path>
    <path fill="#001229" d="M577.455,513.959a7.357,7.357,0,0,0-5.349-2.043,8.467,8.467,0,0,0-6.564,2.734,10.294,10.294,0,0,0,0,13.177,8.268,8.268,0,0,0,6.391,2.73,7.66,7.66,0,0,0,5.519-2.018v1.746h3.666v-18.1h-3.666Zm.136,7.278a6.272,6.272,0,0,1-1.4,4.19,4.8,4.8,0,0,1-3.918,1.7,5.063,5.063,0,0,1-4-1.713,6.729,6.729,0,0,1,0-8.357,5.063,5.063,0,0,1,4-1.715,4.8,4.8,0,0,1,3.92,1.7A6.274,6.274,0,0,1,577.591,521.237Z" transform="translate(-429.876 -505.396)"></path>
    <path fill="#001229" d="M442.192,511.916a8.644,8.644,0,0,0-6.593,2.728,9.423,9.423,0,0,0-2.388,6.593,9.271,9.271,0,0,0,2.5,6.6,8.79,8.79,0,0,0,6.655,2.722,8.648,8.648,0,0,0,5.275-1.537,8.783,8.783,0,0,0,2.99-3.985l.291-.76h-3.936l-.157.3a4.579,4.579,0,0,1-4.428,2.552,5.161,5.161,0,0,1-3.755-1.406,5.446,5.446,0,0,1-1.6-2.907h14.131v-1.578a9.424,9.424,0,0,0-2.392-6.6A8.642,8.642,0,0,0,442.192,511.916Zm-5.092,7.4a5.247,5.247,0,0,1,1.531-2.661,5.486,5.486,0,0,1,7.119,0,5.255,5.255,0,0,1,1.534,2.664Z" transform="translate(-348.42 -505.396)"></path>
  </g>
</svg>